<svg id="Layer_1" data-name="Layer 1" xmlns="http://www.w3.org/2000/svg" viewBox="0 0 350.49 160.49"><defs><style>.cls-1{fill:#bcbcbc;}.cls-2{fill:#eaeaea;}.cls-3{fill:#171717;}</style></defs><title>song1-pushed</title><polygon class="cls-1" points="3.53 17.53 9.52 11.54 9.52 17.54 3.53 17.53"/><polygon class="cls-1" points="332.81 157.11 339.08 150.85 332.81 150.85 332.81 157.11"/><path class="cls-1" d="M324.49,14H12A12,12,0,0,0,0,26V148.49a12,12,0,0,0,12,12H324.49a12,12,0,0,0,12-12V26A12,12,0,0,0,324.49,14Z"/><path class="cls-2" d="M330.49,8H18A12,12,0,0,0,6,20V142.49a12,12,0,0,0,12,12H330.49a12,12,0,0,0,12-12V20A12,12,0,0,0,330.49,8Z"/><path class="cls-3" d="M61.81,108.18a31,31,0,0,1-10.84-2,28.26,28.26,0,0,1-9.65-6l7.14-8.58a26.94,26.94,0,0,0,6.59,4.16,17.28,17.28,0,0,0,7.1,1.62q3.91,0,5.82-1.45A4.64,4.64,0,0,0,69.88,92a4.27,4.27,0,0,0-.55-2.21,5.3,5.3,0,0,0-1.61-1.66,15.33,15.33,0,0,0-2.55-1.36l-3.27-1.4-7.23-3.06a21.44,21.44,0,0,1-4.12-2.21A18.15,18.15,0,0,1,47,76.95a14.38,14.38,0,0,1-2.51-4.25,15.11,15.11,0,0,1-.94-5.48A14.66,14.66,0,0,1,45,60.8a15.94,15.94,0,0,1,4.08-5.27A19.49,19.49,0,0,1,55.31,52a23.72,23.72,0,0,1,7.95-1.27,25.76,25.76,0,0,1,9.56,1.87A24.24,24.24,0,0,1,81.1,58l-6.37,7.91a24.2,24.2,0,0,0-5.44-3.27,15.38,15.38,0,0,0-6-1.15,8.93,8.93,0,0,0-5.14,1.32,4.24,4.24,0,0,0-1.91,3.7,3.63,3.63,0,0,0,.64,2.17,6.2,6.2,0,0,0,1.79,1.62,18,18,0,0,0,2.68,1.36l3.31,1.4L71.75,76a19.51,19.51,0,0,1,8,5.61q2.93,3.57,2.93,9.43a15.73,15.73,0,0,1-5.48,12,20.31,20.31,0,0,1-6.59,3.74A26.06,26.06,0,0,1,61.81,108.18Z"/><path class="cls-3" d="M114.68,108.18a25.61,25.61,0,0,1-10.24-2,22.24,22.24,0,0,1-7.95-5.74,26.35,26.35,0,0,1-5.14-9.1A37.5,37.5,0,0,1,89.52,79.2a37.13,37.13,0,0,1,1.83-12.11,25.06,25.06,0,0,1,5.14-8.92,22.08,22.08,0,0,1,7.95-5.53,28.39,28.39,0,0,1,20.48,0,21.85,21.85,0,0,1,7.95,5.57,25.51,25.51,0,0,1,5.14,9,36.86,36.86,0,0,1,1.83,12A37.52,37.52,0,0,1,138,91.35a26.36,26.36,0,0,1-5.14,9.1,22.25,22.25,0,0,1-7.95,5.74A25.62,25.62,0,0,1,114.68,108.18Zm0-10.79a10.35,10.35,0,0,0,9-4.89Q127,87.61,127,79.2t-3.31-13a11,11,0,0,0-18,0q-3.31,4.68-3.31,13t3.31,13.3A10.35,10.35,0,0,0,114.68,97.39Z"/><path class="cls-3" d="M150.29,51.74h12.83l14.45,27.54L183,91.52h.34q-.43-4.42-1-9.86a102.53,102.53,0,0,1-.55-10.37V51.74h11.9v55.42H180.89L166.44,79.54,161,67.47h-.34q.42,4.59,1,9.86a98.07,98.07,0,0,1,.55,10.2v19.63h-11.9Z"/><path class="cls-3" d="M231.3,108.18a30.69,30.69,0,0,1-10.67-1.83A24.06,24.06,0,0,1,212,101a24.91,24.91,0,0,1-5.74-8.88,33.48,33.48,0,0,1-2.08-12.28,33.31,33.31,0,0,1,2.13-12.28,26.74,26.74,0,0,1,5.82-9.14,24.91,24.91,0,0,1,8.63-5.69,28.09,28.09,0,0,1,10.46-2,22.6,22.6,0,0,1,10.37,2.21,26.52,26.52,0,0,1,7.06,5l-6.55,8a24,24,0,0,0-4.5-3.15,12.49,12.49,0,0,0-5.95-1.27,14,14,0,0,0-5.91,1.23,13.37,13.37,0,0,0-4.63,3.53,16.1,16.1,0,0,0-3,5.61A24.44,24.44,0,0,0,217,79.37q0,8.59,3.87,13.3t11.69,4.72a12.94,12.94,0,0,0,3.32-.42,6.73,6.73,0,0,0,2.63-1.27V86.17h-9.18V76h20.23v25.5a23.85,23.85,0,0,1-7.65,4.76A27.74,27.74,0,0,1,231.3,108.18Z"/><path class="cls-3" d="M277.45,97h11.73V65.85H279.07V58.12a43.59,43.59,0,0,0,7.48-2,41,41,0,0,0,6-2.89h9.18V97h10.12v10.12H277.45Z"/></svg>