<svg id="Layer_1" data-name="Layer 1" xmlns="http://www.w3.org/2000/svg" viewBox="0 0 396 180"><defs><style>.cls-1{fill:#bcbcbc;}.cls-2{fill:#eaeaea;}.cls-3{fill:#171717;}</style></defs><title>song2-pushed</title><polygon class="cls-1" points="3.95 20.2 10.64 13.51 10.64 20.21 3.95 20.2"/><polygon class="cls-1" points="375.22 176.22 382.22 169.22 375.22 169.22 375.22 176.22"/><path class="cls-1" d="M365.91,16.26H13.42A13.45,13.45,0,0,0,0,29.68V166.59A13.45,13.45,0,0,0,13.42,180h352.5a13.45,13.45,0,0,0,13.41-13.41V29.68A13.45,13.45,0,0,0,365.91,16.26Z"/><path class="cls-2" d="M372.62,9.56H20.12A13.45,13.45,0,0,0,6.71,23V159.88a13.45,13.45,0,0,0,13.41,13.41h352.5A13.45,13.45,0,0,0,386,159.88V23A13.45,13.45,0,0,0,372.62,9.56Z"/><path class="cls-3" d="M69.09,121.53A34.71,34.71,0,0,1,57,119.3a31.58,31.58,0,0,1-10.78-6.7l8-9.6a30.13,30.13,0,0,0,7.36,4.66,19.34,19.34,0,0,0,7.93,1.8q4.37,0,6.51-1.62a5.19,5.19,0,0,0,2.14-4.37A4.78,4.78,0,0,0,77.5,101a5.91,5.91,0,0,0-1.81-1.85,17.08,17.08,0,0,0-2.85-1.52l-3.66-1.57-8.08-3.42a23.92,23.92,0,0,1-4.61-2.47,20.26,20.26,0,0,1-4-3.56,16.06,16.06,0,0,1-2.8-4.75,16.89,16.89,0,0,1-1-6.13,16.39,16.39,0,0,1,1.62-7.17,17.8,17.8,0,0,1,4.56-5.89,21.75,21.75,0,0,1,7-3.94,26.52,26.52,0,0,1,8.88-1.43A28.8,28.8,0,0,1,81.39,59.4a27.07,27.07,0,0,1,9.26,6.08l-7.13,8.84a27,27,0,0,0-6.08-3.66,17.2,17.2,0,0,0-6.75-1.28A10,10,0,0,0,65,70.85,4.74,4.74,0,0,0,62.82,75a4.06,4.06,0,0,0,.71,2.42,6.94,6.94,0,0,0,2,1.8,20.2,20.2,0,0,0,3,1.52l3.71,1.57,8,3.23a21.8,21.8,0,0,1,9,6.27q3.28,4,3.28,10.54a17.58,17.58,0,0,1-6.13,13.44A22.72,22.72,0,0,1,79,120,29.15,29.15,0,0,1,69.09,121.53Z"/><path class="cls-3" d="M128.18,121.53a28.63,28.63,0,0,1-11.45-2.23,24.85,24.85,0,0,1-8.88-6.41,29.44,29.44,0,0,1-5.75-10.17,41.92,41.92,0,0,1-2-13.59,41.49,41.49,0,0,1,2-13.54,28,28,0,0,1,5.75-10,24.68,24.68,0,0,1,8.88-6.18,31.73,31.73,0,0,1,22.9,0,24.44,24.44,0,0,1,8.88,6.22,28.53,28.53,0,0,1,5.75,10,41.22,41.22,0,0,1,2,13.44,42,42,0,0,1-2,13.59,29.46,29.46,0,0,1-5.75,10.17,24.87,24.87,0,0,1-8.88,6.41A28.64,28.64,0,0,1,128.18,121.53Zm0-12.07A11.57,11.57,0,0,0,138.26,104Q142,98.54,142,89.14T138.26,74.6a12.32,12.32,0,0,0-20.14,0q-3.71,5.23-3.71,14.54T118.11,104A11.57,11.57,0,0,0,128.18,109.47Z"/><path class="cls-3" d="M168,58.45h14.35l16.15,30.78,6.08,13.68h.38q-.48-4.94-1.09-11a114.61,114.61,0,0,1-.62-11.59V58.45h13.3v61.94H202.19L186,89.52,180,76h-.38q.47,5.13,1.09,11a109.57,109.57,0,0,1,.62,11.4v21.95H168Z"/><path class="cls-3" d="M258.53,121.53a34.3,34.3,0,0,1-11.92-2,26.89,26.89,0,0,1-9.64-6,27.85,27.85,0,0,1-6.41-9.93,37.43,37.43,0,0,1-2.33-13.73,37.24,37.24,0,0,1,2.38-13.73,29.89,29.89,0,0,1,6.51-10.21,27.87,27.87,0,0,1,9.64-6.37,31.42,31.42,0,0,1,11.69-2.19A25.25,25.25,0,0,1,270,59.78a29.59,29.59,0,0,1,7.89,5.61l-7.32,8.93a26.8,26.8,0,0,0-5-3.52,14,14,0,0,0-6.65-1.42,15.62,15.62,0,0,0-6.6,1.38,15,15,0,0,0-5.18,3.94A18,18,0,0,0,243.76,81a27.32,27.32,0,0,0-1.19,8.36q0,9.6,4.32,14.87T260,109.47a14.47,14.47,0,0,0,3.71-.47,7.52,7.52,0,0,0,2.94-1.43V96.93H256.35V85.53H279V114a26.67,26.67,0,0,1-8.55,5.32A31,31,0,0,1,258.53,121.53Z"/><path class="cls-3" d="M307,112.41q5.79-5.42,10.59-10.12t8.27-8.84a48.29,48.29,0,0,0,5.42-7.7A14.21,14.21,0,0,0,333.21,79q0-4.46-2.28-6.79a8.38,8.38,0,0,0-6.27-2.33,9.81,9.81,0,0,0-5.89,1.85A32.52,32.52,0,0,0,313.92,76l-7.6-7.51a34.72,34.72,0,0,1,9.12-7.17,23.79,23.79,0,0,1,11.12-2.42,22.9,22.9,0,0,1,8.12,1.38A18.65,18.65,0,0,1,341,64.2a17,17,0,0,1,4.09,6,20.84,20.84,0,0,1,1.42,7.89,20.33,20.33,0,0,1-1.62,7.74,42.31,42.31,0,0,1-4.32,7.89,83.78,83.78,0,0,1-6.18,7.89q-3.47,3.94-7.17,7.74,2.28-.29,5.08-.52t5-.24h12.16v11.78H307Z"/></svg>