<svg id="Layer_1" data-name="Layer 1" xmlns="http://www.w3.org/2000/svg" viewBox="0 0 396 180"><defs><style>.cls-1{fill:#bcbcbc;}.cls-2{fill:#eaeaea;}.cls-3{fill:#231f20;}</style></defs><title>song1</title><polyline class="cls-1" points="376.36 176.03 392.05 160.34 376.36 160.34"/><polyline class="cls-1" points="2.99 20.65 19.95 3.68 19.95 20.65"/><path class="cls-1" d="M466.84,111.53H113.46A13.5,13.5,0,0,0,100,125V262.37a13.5,13.5,0,0,0,13.46,13.46H466.84a13.5,13.5,0,0,0,13.46-13.46V125A13.5,13.5,0,0,0,466.84,111.53Z" transform="translate(-100 -95.83)"/><path class="cls-2" d="M482.54,95.83H129.16a13.5,13.5,0,0,0-13.46,13.46V246.67a13.5,13.5,0,0,0,13.46,13.46H482.54A13.5,13.5,0,0,0,496,246.67V109.29A13.5,13.5,0,0,0,482.54,95.83Z" transform="translate(-100 -95.83)"/><path class="cls-3" d="M178.29,208.19A34.83,34.83,0,0,1,166.14,206a31.7,31.7,0,0,1-10.82-6.72l8-9.63a30.21,30.21,0,0,0,7.39,4.67,19.4,19.4,0,0,0,8,1.81q4.38,0,6.53-1.62a5.21,5.21,0,0,0,2.15-4.39,4.79,4.79,0,0,0-.62-2.48,5.93,5.93,0,0,0-1.81-1.86,17.13,17.13,0,0,0-2.86-1.53l-3.67-1.57-8.1-3.43a24,24,0,0,1-4.62-2.48,20.32,20.32,0,0,1-4-3.57,16.11,16.11,0,0,1-2.81-4.77,17,17,0,0,1-1-6.15,16.45,16.45,0,0,1,1.62-7.2,17.88,17.88,0,0,1,4.58-5.91,21.85,21.85,0,0,1,7-4,26.61,26.61,0,0,1,8.91-1.43,28.9,28.9,0,0,1,10.73,2.1,27.16,27.16,0,0,1,9.29,6.1l-7.15,8.87a27.12,27.12,0,0,0-6.1-3.67,17.25,17.25,0,0,0-6.77-1.29,10,10,0,0,0-5.77,1.48,4.75,4.75,0,0,0-2.14,4.15,4.07,4.07,0,0,0,.71,2.43,7,7,0,0,0,2,1.81,20.2,20.2,0,0,0,3,1.53l3.72,1.57,8,3.24a21.88,21.88,0,0,1,9,6.29q3.29,4,3.29,10.58a17.64,17.64,0,0,1-6.15,13.49,22.79,22.79,0,0,1-7.39,4.19A29.24,29.24,0,0,1,178.29,208.19Z" transform="translate(-100 -95.83)"/><path class="cls-3" d="M237.59,208.19A28.74,28.74,0,0,1,226.1,206a24.94,24.94,0,0,1-8.91-6.44,29.54,29.54,0,0,1-5.77-10.2,42.05,42.05,0,0,1-2-13.63,41.63,41.63,0,0,1,2-13.58,28.11,28.11,0,0,1,5.77-10,24.76,24.76,0,0,1,8.91-6.2,31.83,31.83,0,0,1,23,0,24.51,24.51,0,0,1,8.91,6.24,28.63,28.63,0,0,1,5.77,10.06,41.36,41.36,0,0,1,2,13.49,42.11,42.11,0,0,1-2,13.63,29.58,29.58,0,0,1-5.77,10.2,25,25,0,0,1-8.91,6.44A28.74,28.74,0,0,1,237.59,208.19Zm0-12.11a11.61,11.61,0,0,0,10.11-5.48q3.72-5.48,3.72-14.92T247.7,161.1a12.36,12.36,0,0,0-20.21,0q-3.72,5.24-3.72,14.59t3.72,14.92A11.61,11.61,0,0,0,237.59,196.09Z" transform="translate(-100 -95.83)"/><path class="cls-3" d="M277.54,144.89h14.4l16.21,30.89,6.1,13.73h.38q-.48-5-1.1-11.06a115,115,0,0,1-.62-11.63V144.89h13.35V207h-14.4l-16.21-31-6.1-13.54h-.38q.48,5.15,1.1,11.06a109.92,109.92,0,0,1,.62,11.44v22H277.54Z" transform="translate(-100 -95.83)"/><path class="cls-3" d="M368.39,208.19a34.42,34.42,0,0,1-12-2,27,27,0,0,1-9.68-6.05,27.94,27.94,0,0,1-6.44-10,41.4,41.4,0,0,1,0-27.55,30,30,0,0,1,6.53-10.25,28,28,0,0,1,9.68-6.39,31.52,31.52,0,0,1,11.73-2.19,25.34,25.34,0,0,1,11.63,2.48,29.71,29.71,0,0,1,7.91,5.63l-7.34,9a26.9,26.9,0,0,0-5.05-3.53,14,14,0,0,0-6.67-1.43,15.66,15.66,0,0,0-6.63,1.38,15,15,0,0,0-5.2,4,18.06,18.06,0,0,0-3.38,6.29,27.4,27.4,0,0,0-1.19,8.39q0,9.63,4.34,14.92t13.11,5.29a14.51,14.51,0,0,0,3.72-.48,7.54,7.54,0,0,0,3-1.43V183.5h-10.3V172.06h22.69v28.6A26.76,26.76,0,0,1,380.3,206,31.1,31.1,0,0,1,368.39,208.19Z" transform="translate(-100 -95.83)"/><path class="cls-3" d="M420.15,195.7h13.16v-35H422V152a48.74,48.74,0,0,0,8.39-2.29,46,46,0,0,0,6.67-3.24h10.3V195.7h11.34V207H420.15Z" transform="translate(-100 -95.83)"/></svg>