<svg id="Layer_1" data-name="Layer 1" xmlns="http://www.w3.org/2000/svg" viewBox="0 0 396 180"><defs><style>.cls-1{fill:#75742f;}.cls-2{fill:#dcdb53;}.cls-3{fill:#433b16;}</style></defs><title>vote</title><polyline class="cls-1" points="376.36 176.03 392.05 160.34 376.36 160.34"/><polyline class="cls-1" points="2.99 20.65 19.95 3.68 19.95 20.65"/><path class="cls-1" d="M466.84,111.53H113.46A13.5,13.5,0,0,0,100,125V262.37a13.5,13.5,0,0,0,13.46,13.46H466.84a13.5,13.5,0,0,0,13.46-13.46V125A13.5,13.5,0,0,0,466.84,111.53Z" transform="translate(-100 -95.83)"/><path class="cls-2" d="M482.54,95.83H129.16a13.5,13.5,0,0,0-13.46,13.46V246.67a13.5,13.5,0,0,0,13.46,13.46H482.54A13.5,13.5,0,0,0,496,246.67V109.29A13.5,13.5,0,0,0,482.54,95.83Z" transform="translate(-100 -95.83)"/><path class="cls-3" d="M193.67,144.89h14.87l7.44,29q1.43,5.15,2.53,10t2.53,10h.38q1.33-5.15,2.48-10t2.48-10l7.34-29H248L229.33,207H212.46Z" transform="translate(-100 -95.83)"/><path class="cls-3" d="M279,208.19A28.74,28.74,0,0,1,267.51,206a24.94,24.94,0,0,1-8.91-6.44,29.54,29.54,0,0,1-5.77-10.2,42.05,42.05,0,0,1-2-13.63,41.63,41.63,0,0,1,2-13.58,28.11,28.11,0,0,1,5.77-10,24.76,24.76,0,0,1,8.91-6.2,31.83,31.83,0,0,1,23,0,24.51,24.51,0,0,1,8.91,6.24,28.63,28.63,0,0,1,5.77,10.06,41.36,41.36,0,0,1,2,13.49,42.11,42.11,0,0,1-2,13.63,29.58,29.58,0,0,1-5.77,10.2,25,25,0,0,1-8.91,6.44A28.74,28.74,0,0,1,279,208.19Zm0-12.11a11.61,11.61,0,0,0,10.11-5.48q3.72-5.48,3.72-14.92T289.1,161.1a12.36,12.36,0,0,0-20.21,0q-3.72,5.24-3.72,14.59t3.72,14.92A11.61,11.61,0,0,0,279,196.09Z" transform="translate(-100 -95.83)"/><path class="cls-3" d="M328.38,156.71H311.31V144.89h48.24v11.82H342.49V207H328.38Z" transform="translate(-100 -95.83)"/><path class="cls-3" d="M369.28,144.89h38.9v11.82H383.29V169.2h21.16v11.73H383.29v14.3h25.83V207H369.28Z" transform="translate(-100 -95.83)"/></svg>