<svg id="Layer_1" data-name="Layer 1" xmlns="http://www.w3.org/2000/svg" viewBox="0 0 396 180"><defs><style>.cls-1{fill:#75752f;}.cls-2{fill:#dcdb54;}.cls-3{fill:#433b16;}</style></defs><title>vote-pushed</title><polygon class="cls-1" points="3.95 20.2 10.64 13.51 10.64 20.21 3.95 20.2"/><polygon class="cls-1" points="375.22 176.22 382.22 169.22 375.22 169.22 375.22 176.22"/><path class="cls-1" d="M365.91,16.26H13.42A13.45,13.45,0,0,0,0,29.68V166.59A13.45,13.45,0,0,0,13.42,180h352.5a13.45,13.45,0,0,0,13.41-13.41V29.68A13.45,13.45,0,0,0,365.91,16.26Z"/><path class="cls-2" d="M372.62,9.56H20.12A13.45,13.45,0,0,0,6.71,23V159.88a13.45,13.45,0,0,0,13.41,13.41h352.5A13.45,13.45,0,0,0,386,159.88V23A13.45,13.45,0,0,0,372.62,9.56Z"/><path class="cls-3" d="M84.2,58.34H99.07l7.44,29q1.43,5.15,2.53,10t2.53,10h.38q1.33-5.15,2.48-10t2.48-10l7.34-29h14.3l-18.69,62.16H103Z"/><path class="cls-3" d="M169.52,121.64A28.74,28.74,0,0,1,158,119.4a24.94,24.94,0,0,1-8.91-6.43,29.55,29.55,0,0,1-5.77-10.2,42.05,42.05,0,0,1-2-13.63,41.63,41.63,0,0,1,2-13.58,28.1,28.1,0,0,1,5.77-10,24.76,24.76,0,0,1,8.91-6.2,31.84,31.84,0,0,1,23,0,24.52,24.52,0,0,1,8.91,6.24,28.64,28.64,0,0,1,5.77,10.06,41.36,41.36,0,0,1,2,13.49,42.1,42.1,0,0,1-2,13.63,29.58,29.58,0,0,1-5.77,10.2A25,25,0,0,1,181,119.4,28.74,28.74,0,0,1,169.52,121.64Zm0-12.11A11.61,11.61,0,0,0,179.63,104q3.72-5.48,3.72-14.92t-3.72-14.59a12.36,12.36,0,0,0-20.21,0q-3.72,5.24-3.72,14.59T159.41,104A11.61,11.61,0,0,0,169.52,109.53Z"/><path class="cls-3" d="M218.9,70.16H201.84V58.34h48.24V70.16H233v50.34H218.9Z"/><path class="cls-3" d="M259.8,58.34h38.9V70.16H273.81V82.65H295V94.37H273.81v14.3h25.83v11.82H259.8Z"/></svg>